# xmcd
#
# Track frame offsets:
# 150
# 17274
# 33985
# 50074
# 68682
# 86359
# 100892
# 118763
# 134087
# 152007
#
# Disc length: 2238 seconds
#
#
# Revision: 0
# Processed by: cddbd v1.5.2PL0 Copyright (c) Steve Scherf et al.
# Submitted via: FreeRIP 2.96 
#
DISCID=7c08bc0a
DTITLE=Kevin Chase - I Won't Fall
DYEAR=0006
DGENRE=Country
TTITLE0=Kevin Chase-It's A Long Way To Your Heart
TTITLE1=Kevin Chase-You're Alright
TTITLE2=Kevin Chase-The Rush
TTITLE3=Kevin Chase-One Of A Kind
TTITLE4=Kevin Chase-I Won't Fall
TTITLE5=Kevin Chase-A Little Something
TTITLE6=Kevin Chase-I'm Coming Home
TTITLE7=Kevin Chase-Guilty
TTITLE8=Kevin Chase-One Minute
TTITLE9=Kevin Chase-Don't Worry
EXTD=
EXTT0=
EXTT1=
EXTT2=
EXTT3=
EXTT4=
EXTT5=
EXTT6=
EXTT7=
EXTT8=
EXTT9=
PLAYORDER=
